<svg xmlns="http://www.w3.org/2000/svg" width="206.666" height="72.685" viewBox="0 0 206.666 72.685">
  <g id="Group_230" data-name="Group 230" transform="translate(-37.334 -24.936)">
    <g id="Group_151" data-name="Group 151" transform="translate(-523.475)">
      <g id="Group_147" data-name="Group 147">
        <path id="Path_238" data-name="Path 238" d="M601.169,25.773H611.8v48.9H601.169l-.921-5.777a20.977,20.977,0,0,1-15.239,6.614c-13.314,0-24.2-11.053-24.2-25.288,0-14.318,10.886-25.288,24.2-25.288a20.977,20.977,0,0,1,15.239,6.614Zm-1.758,24.451a12.979,12.979,0,1,0-25.958,0,12.979,12.979,0,1,0,25.958,0" fill="#8ff129"/>
      </g>
      <g id="Group_148" data-name="Group 148">
        <path id="Path_239" data-name="Path 239" d="M653,25.6V38.249a30.371,30.371,0,0,0-4.605-.418c-7.956,0-11.974,4.772-11.974,12.058V74.675H623.946v-48.9h10.467l1.005,6.282a19.216,19.216,0,0,1,14.572-6.7A18.253,18.253,0,0,1,653,25.6" fill="#8ff129"/>
      </g>
      <g id="Group_149" data-name="Group 149">
        <path id="Path_240" data-name="Path 240" d="M696.465,25.773H707.1v48.9H696.465l-.921-5.777a20.979,20.979,0,0,1-15.24,6.614c-13.316,0-24.2-11.053-24.2-25.288,0-14.318,10.884-25.288,24.2-25.288a20.979,20.979,0,0,1,15.24,6.614Zm-1.759,24.451a12.979,12.979,0,1,0-25.958,0,12.979,12.979,0,1,0,25.958,0" fill="#8ff129"/>
      </g>
      <g id="Group_150" data-name="Group 150">
        <path id="Path_241" data-name="Path 241" d="M756.84,25.773h10.635v48.9H756.84l-.921-5.777a20.977,20.977,0,0,1-15.239,6.614c-13.316,0-24.2-11.053-24.2-25.288,0-14.318,10.884-25.288,24.2-25.288a20.977,20.977,0,0,1,15.239,6.614Zm-1.758,24.451a12.979,12.979,0,1,0-25.958,0,12.979,12.979,0,1,0,25.958,0" fill="#8ff129"/>
      </g>
    </g>
    <g id="Group_152" data-name="Group 152" transform="translate(-523.475)">
      <path id="Path_242" data-name="Path 242" d="M583.3,92.195l1.407,2.965h-2.11L581.5,92.7c-.175.012-.352.025-.528.025h-1.495V95.16h-1.934V85.814h3.429c2.349,0,3.894,1.394,3.894,3.542A3.07,3.07,0,0,1,583.3,92.195Zm-3.819-1.156H581.1a1.686,1.686,0,1,0,0-3.366h-1.621Z" fill="#a4a4a4"/>
      <path id="Path_243" data-name="Path 243" d="M593.044,92.094H587.6a2.075,2.075,0,0,0,2.16,1.545,2.554,2.554,0,0,0,1.809-.665l1.105,1.218a4.027,4.027,0,0,1-2.927,1.093,3.708,3.708,0,0,1-4.006-3.743,3.748,3.748,0,0,1,3.831-3.844,3.4,3.4,0,0,1,3.517,3.53A4.167,4.167,0,0,1,593.044,92.094ZM591.3,90.675c-.038-.791-.741-1.331-1.733-1.331a1.875,1.875,0,0,0-1.922,1.331Z" fill="#a4a4a4"/>
      <path id="Path_244" data-name="Path 244" d="M600.064,87.823h1.595V95.16h-1.595l-.139-.867a3.146,3.146,0,0,1-2.286.992,3.8,3.8,0,0,1,0-7.587,3.146,3.146,0,0,1,2.286.992Zm-.264,3.669a1.947,1.947,0,1,0-1.947,1.959A1.9,1.9,0,0,0,599.8,91.492Z" fill="#a4a4a4"/>
      <path id="Path_245" data-name="Path 245" d="M603.39,92.836v-7.9h1.884l-.012,7.826c0,.577.163.854.615.854a1.143,1.143,0,0,0,.654-.227l.665,1.445a2.72,2.72,0,0,1-1.646.452C604.144,95.285,603.39,94.418,603.39,92.836Z" fill="#a4a4a4"/>
      <path id="Path_246" data-name="Path 246" d="M618.262,87.673H614.09v1.859h3.681v1.746H614.09V93.3h4.172v1.86h-6.106V85.814h6.106Z" fill="#a4a4a4"/>
      <path id="Path_247" data-name="Path 247" d="M619.276,94.494l.8-1.47a4.566,4.566,0,0,0,2.11.6c.817,0,1.244-.214,1.244-.641,0-.377-.351-.6-1.269-.766-1.821-.339-2.612-1.042-2.612-2.311,0-1.319,1.155-2.211,2.9-2.211a5.14,5.14,0,0,1,2.65.641l-.828,1.507a3.425,3.425,0,0,0-1.822-.478c-.653.013-1.03.2-1.03.541,0,.377.314.566,1.294.766,1.784.377,2.588,1.093,2.588,2.311,0,1.42-1.206,2.3-3.116,2.3A5.459,5.459,0,0,1,619.276,94.494Z" fill="#a4a4a4"/>
      <path id="Path_248" data-name="Path 248" d="M631.22,94.733a2.887,2.887,0,0,1-1.846.552,2.261,2.261,0,0,1-2.462-2.449l.012-3.291H625.87V87.823h1.054V86.63l1.884-.339v1.532h1.948v1.722H628.8v3.178a.748.748,0,0,0,.791.842,1.138,1.138,0,0,0,.8-.277Z" fill="#a4a4a4"/>
      <path id="Path_249" data-name="Path 249" d="M637.827,87.823h1.595V95.16h-1.595l-.139-.867a3.146,3.146,0,0,1-2.286.992,3.8,3.8,0,0,1,0-7.587,3.146,3.146,0,0,1,2.286.992Zm-.264,3.669a1.947,1.947,0,1,0-1.947,1.959A1.9,1.9,0,0,0,637.563,91.492Z" fill="#a4a4a4"/>
      <path id="Path_250" data-name="Path 250" d="M645.725,94.733a2.887,2.887,0,0,1-1.846.552,2.261,2.261,0,0,1-2.462-2.449l.012-3.291h-1.054V87.823h1.054V86.63l1.884-.339v1.532h1.948v1.722H643.3v3.178a.749.749,0,0,0,.791.842,1.138,1.138,0,0,0,.8-.277Z" fill="#a4a4a4"/>
      <path id="Path_251" data-name="Path 251" d="M653.576,92.094h-5.439a2.075,2.075,0,0,0,2.16,1.545,2.552,2.552,0,0,0,1.809-.665l1.1,1.218a4.027,4.027,0,0,1-2.926,1.093,3.709,3.709,0,0,1-4.007-3.743,3.749,3.749,0,0,1,3.831-3.844,3.394,3.394,0,0,1,3.517,3.53A4.162,4.162,0,0,1,653.576,92.094Zm-1.746-1.419c-.038-.791-.742-1.331-1.734-1.331a1.875,1.875,0,0,0-1.922,1.331Z" fill="#a4a4a4"/>
      <path id="Path_252" data-name="Path 252" d="M662.239,85.814c3.1,0,5.176,1.872,5.176,4.673s-2.073,4.673-5.176,4.673h-3.178V85.814Zm.277,7.474a2.8,2.8,0,1,0,0-5.6H661v5.6Z" fill="#a4a4a4"/>
      <path id="Path_253" data-name="Path 253" d="M668.631,85.726a1.1,1.1,0,1,1,1.092,1.08A1.094,1.094,0,0,1,668.631,85.726Zm.163,9.434V87.823h1.872V95.16Z" fill="#a4a4a4"/>
      <path id="Path_254" data-name="Path 254" d="M678.051,87.823h1.583V94.23c0,2.1-1.495,3.391-3.882,3.391a5.7,5.7,0,0,1-3.416-1.017l.916-1.432a4.144,4.144,0,0,0,2.45.8,1.8,1.8,0,0,0,2.06-1.91V93.79a2.65,2.65,0,0,1-2.235,1.043A3.554,3.554,0,0,1,672,91.178a3.421,3.421,0,0,1,3.53-3.48,3.018,3.018,0,0,1,2.373.992Zm-.264,3.43a1.954,1.954,0,1,0-1.947,1.9A1.866,1.866,0,0,0,677.787,91.253Z" fill="#a4a4a4"/>
      <path id="Path_255" data-name="Path 255" d="M681.215,85.726a1.1,1.1,0,1,1,1.092,1.08A1.094,1.094,0,0,1,681.215,85.726Zm.163,9.434V87.823h1.872V95.16Z" fill="#a4a4a4"/>
      <path id="Path_256" data-name="Path 256" d="M689.567,94.733a2.888,2.888,0,0,1-1.846.552,2.261,2.261,0,0,1-2.462-2.449l.012-3.291h-1.054V87.823h1.054V86.63l1.884-.339v1.532H689.1v1.722h-1.959v3.178a.748.748,0,0,0,.791.842,1.14,1.14,0,0,0,.8-.277Z" fill="#a4a4a4"/>
      <path id="Path_257" data-name="Path 257" d="M696.173,87.823h1.6V95.16h-1.6l-.139-.867a3.146,3.146,0,0,1-2.286.992,3.8,3.8,0,0,1,0-7.587,3.146,3.146,0,0,1,2.286.992Zm-.264,3.669a1.947,1.947,0,1,0-1.947,1.959A1.9,1.9,0,0,0,695.909,91.492Z" fill="#a4a4a4"/>
      <path id="Path_258" data-name="Path 258" d="M699.5,92.836v-7.9h1.884l-.012,7.826c0,.577.163.854.615.854a1.143,1.143,0,0,0,.654-.227l.665,1.445a2.72,2.72,0,0,1-1.646.452C700.254,95.285,699.5,94.418,699.5,92.836Z" fill="#a4a4a4"/>
      <path id="Path_259" data-name="Path 259" d="M714.647,95.16l-.729-1.545h-3.681L709.5,95.16h-2.16l4.723-9.572,4.748,9.572Zm-1.407-3.14-1.181-2.551-1.181,2.551Z" fill="#a4a4a4"/>
      <path id="Path_260" data-name="Path 260" d="M717.283,94.494l.8-1.47a4.559,4.559,0,0,0,2.109.6c.817,0,1.244-.214,1.244-.641,0-.377-.351-.6-1.269-.766-1.821-.339-2.612-1.042-2.612-2.311,0-1.319,1.155-2.211,2.9-2.211a5.146,5.146,0,0,1,2.651.641l-.829,1.507a3.422,3.422,0,0,0-1.822-.478c-.653.013-1.03.2-1.03.541,0,.377.314.566,1.294.766,1.784.377,2.588,1.093,2.588,2.311,0,1.42-1.206,2.3-3.116,2.3A5.456,5.456,0,0,1,717.283,94.494Z" fill="#a4a4a4"/>
      <path id="Path_261" data-name="Path 261" d="M724.3,94.494l.8-1.47a4.559,4.559,0,0,0,2.109.6c.817,0,1.244-.214,1.244-.641,0-.377-.351-.6-1.269-.766-1.821-.339-2.612-1.042-2.612-2.311,0-1.319,1.155-2.211,2.9-2.211a5.145,5.145,0,0,1,2.65.641l-.829,1.507a3.422,3.422,0,0,0-1.821-.478c-.654.013-1.031.2-1.031.541,0,.377.314.566,1.294.766,1.784.377,2.588,1.093,2.588,2.311,0,1.42-1.206,2.3-3.116,2.3A5.456,5.456,0,0,1,724.3,94.494Z" fill="#a4a4a4"/>
      <path id="Path_262" data-name="Path 262" d="M738.558,92.094h-5.439a2.077,2.077,0,0,0,2.161,1.545,2.551,2.551,0,0,0,1.808-.665l1.1,1.218a4.023,4.023,0,0,1-2.926,1.093,3.709,3.709,0,0,1-4.007-3.743,3.749,3.749,0,0,1,3.831-3.844,3.394,3.394,0,0,1,3.517,3.53A4.162,4.162,0,0,1,738.558,92.094Zm-1.746-1.419c-.038-.791-.741-1.331-1.734-1.331a1.877,1.877,0,0,0-1.922,1.331Z" fill="#a4a4a4"/>
      <path id="Path_263" data-name="Path 263" d="M744.509,94.733a2.885,2.885,0,0,1-1.846.552,2.261,2.261,0,0,1-2.462-2.449l.013-3.291h-1.055V87.823h1.055V86.63l1.884-.339v1.532h1.947v1.722h-1.959v3.178a.748.748,0,0,0,.791.842,1.142,1.142,0,0,0,.8-.277Z" fill="#a4a4a4"/>
      <path id="Path_264" data-name="Path 264" d="M745.125,94.494l.8-1.47a4.558,4.558,0,0,0,2.109.6c.817,0,1.244-.214,1.244-.641,0-.377-.351-.6-1.268-.766-1.822-.339-2.613-1.042-2.613-2.311,0-1.319,1.155-2.211,2.9-2.211a5.145,5.145,0,0,1,2.65.641l-.829,1.507a3.422,3.422,0,0,0-1.821-.478c-.654.013-1.031.2-1.031.541,0,.377.315.566,1.294.766,1.784.377,2.588,1.093,2.588,2.311,0,1.42-1.206,2.3-3.116,2.3A5.456,5.456,0,0,1,745.125,94.494Z" fill="#a4a4a4"/>
    </g>
  </g>
</svg>
